<svg width="100" height="41" viewBox="0 0 100 41" fill="none" xmlns="http://www.w3.org/2000/svg">
<g clip-path="url(#clip0_11_397)">
<mask id="mask0_11_397" style="mask-type:luminance" maskUnits="userSpaceOnUse" x="0" y="0" width="100" height="41">
<path d="M99.7285 0.974121H0.728516V40.9741H99.7285V0.974121Z" fill="white"/>
</mask>
<g mask="url(#mask0_11_397)">
<path d="M0.728516 32.3441L2.82727 33.4641L4.92601 31.5341L7.02476 32.4741L9.12351 33.0541L11.2223 37.7041L13.321 36.6741L15.4198 35.6541L17.5185 35.6841L19.6173 28.8041L21.716 25.6441L23.8148 28.6441L25.9135 28.9941L28.0123 25.5141L30.111 26.3241H32.2098L34.3085 21.2641L36.4073 21.8441L38.506 23.1741L40.6048 24.5241L42.7035 26.6541L44.8023 31.8341L46.901 30.1841L48.9998 31.1241L51.0985 34.8241H53.1973L55.296 31.3441L57.3947 30.4941L59.4935 31.1941H61.5922H63.691L65.7897 29.4241L67.8885 29.1741L69.9872 28.1741L72.086 28.3241L74.1847 23.2141L76.2835 20.5041L78.3822 15.4741L80.481 16.6241L82.5797 15.2041L84.6785 12.4141L86.7772 8.90405L88.876 11.8741L90.9747 16.2741L93.0735 21.1341L95.1722 27.1441L97.271 20.2041L99.3697 18.8641L99.7285 17.7241" stroke="#00A159" stroke-width="2" stroke-linecap="round" stroke-linejoin="round"/>
</g>
</g>
<defs>
<clipPath id="clip0_11_397">
<rect width="99" height="40" fill="white" transform="translate(0.728516 0.974121)"/>
</clipPath>
</defs>
</svg>
