<svg width="100" height="41" viewBox="0 0 100 41" fill="none" xmlns="http://www.w3.org/2000/svg">
<g clip-path="url(#clip0_11_359)">
<mask id="mask0_11_359" style="mask-type:luminance" maskUnits="userSpaceOnUse" x="0" y="0" width="100" height="41">
<path d="M99.7285 0.974121H0.728516V40.9741H99.7285V0.974121Z" fill="white"/>
</mask>
<g mask="url(#mask0_11_359)">
<path d="M0.728516 38.9741H2.82727H4.92601L7.02476 8.72412H9.12351L11.2223 14.9741L13.321 21.4741H15.4198H17.5185L19.6173 7.72412H21.716H23.8148L25.9135 7.47412L28.0123 7.72412H30.111H32.2098H34.3085L36.4073 14.7241H38.506H40.6048L42.7035 14.2241L44.8023 17.7241H46.901H48.9998H51.0985H53.1973H55.296L57.3947 32.7241H59.4935H61.5922L63.691 22.7241H65.7897H67.8885H69.9872H72.086H74.1847L76.2835 25.9741H78.3822H80.481H82.5797L84.6785 27.7241H86.7772H88.876L90.9747 17.7241L93.0735 38.7241H95.1722H97.271H99.3697H99.7285" stroke="#ED4A2C" stroke-width="2" stroke-linecap="round" stroke-linejoin="round"/>
</g>
</g>
<defs>
<clipPath id="clip0_11_359">
<rect width="99" height="40" fill="white" transform="translate(0.728516 0.974121)"/>
</clipPath>
</defs>
</svg>
