<svg width="100" height="41" viewBox="0 0 100 41" fill="none" xmlns="http://www.w3.org/2000/svg">
<g clip-path="url(#clip0_11_438)">
<mask id="mask0_11_438" style="mask-type:luminance" maskUnits="userSpaceOnUse" x="0" y="0" width="100" height="41">
<path d="M99.7285 0.974121H0.728516V40.9741H99.7285V0.974121Z" fill="white"/>
</mask>
<g mask="url(#mask0_11_438)">
<path d="M0.728516 14.6442L2.82727 12.8142H4.92601L7.02476 9.88086L9.12351 9.95753H11.2223L13.321 11.0275L15.4198 9.99753L17.5185 10.3842L19.6173 7.88753H21.716H23.8148L25.9135 7.96086H28.0123L30.111 10.3842L32.2098 9.24086H34.3085L36.4073 8.49753L38.506 7.63086L40.6048 9.24753H42.7035L44.8023 18.8542L46.901 17.0075H48.9998H51.0985L53.1973 21.3675H55.296L57.3947 21.5575L59.4935 22.4909L61.5922 21.7375H63.691L65.7897 23.2042H67.8885L69.9872 26.8975L72.086 25.0842L74.1847 24.9542L76.2835 27.4175L78.3822 23.2575L80.481 25.1309L82.5797 25.9075H84.6785L86.7772 27.5875L88.876 30.0275L90.9747 30.3375L93.0735 36.4975L95.1722 40.4175L97.271 38.7209L99.3697 36.0309H99.7285" stroke="#ED4A2C" stroke-width="2" stroke-linecap="round" stroke-linejoin="round"/>
</g>
</g>
<defs>
<clipPath id="clip0_11_438">
<rect width="99" height="40" fill="white" transform="translate(0.728516 0.974121)"/>
</clipPath>
</defs>
</svg>
