<svg width="100" height="41" viewBox="0 0 100 41" fill="none" xmlns="http://www.w3.org/2000/svg">
<g clip-path="url(#clip0_11_281)">
<mask id="mask0_11_281" style="mask-type:luminance" maskUnits="userSpaceOnUse" x="0" y="0" width="100" height="41">
<path d="M99.7285 0.974121H0.728516V40.9741H99.7285V0.974121Z" fill="white"/>
</mask>
<g mask="url(#mask0_11_281)">
<path d="M0.728516 14.8142L2.82727 17.4542L4.92601 14.9142L7.02476 15.9342L9.12351 18.8142L11.2223 22.2742L13.321 21.8542L15.4198 18.6742L17.5185 15.9742L19.6173 13.1542L21.716 11.1542L23.8148 13.6542L25.9135 12.0542L28.0123 12.7342L30.111 10.8342L32.2098 10.4342L34.3085 10.7542L36.4073 10.0942L38.506 11.6742L40.6048 11.3942L42.7035 11.8942L44.8023 14.8942L46.901 16.0742L48.9998 16.0542L51.0985 16.8942L53.1973 12.9942L55.296 14.8542L57.3947 17.2742L59.4935 19.8942L61.5922 20.3742L63.691 21.8942L65.7897 24.8942L67.8885 22.3542L69.9872 20.9742L72.086 19.7942L74.1847 24.5342L76.2835 22.3342L78.3822 20.5542L80.481 21.2742L82.5797 26.1142L84.6785 28.4142L86.7772 26.5942L88.876 26.3942L90.9747 30.3542L93.0735 35.3942L95.1722 38.2542L97.271 36.6542L99.3697 33.1142L99.7285 34.6342" stroke="#ED4A2C" stroke-width="2" stroke-linecap="round" stroke-linejoin="round"/>
</g>
</g>
<defs>
<clipPath id="clip0_11_281">
<rect width="99" height="40" fill="white" transform="translate(0.728516 0.974121)"/>
</clipPath>
</defs>
</svg>
