<svg width="100" height="41" viewBox="0 0 100 41" fill="none" xmlns="http://www.w3.org/2000/svg">
<g clip-path="url(#clip0_11_241)">
<mask id="mask0_11_241" style="mask-type:luminance" maskUnits="userSpaceOnUse" x="0" y="0" width="100" height="41">
<path d="M99.7285 0.974121H0.728516V40.9741H99.7285V0.974121Z" fill="white"/>
</mask>
<g mask="url(#mask0_11_241)">
<path d="M0.728516 35.9741L2.82727 35.7241L4.92601 27.0991L7.02476 26.7241L9.12351 23.9741L11.2223 32.2241L13.321 28.3491L15.4198 24.2241L17.5185 21.2241L19.6173 10.5991L21.716 5.22412L23.8148 14.5991L25.9135 10.2241L28.0123 12.5991L30.111 9.97412L32.2098 10.5991L34.3085 4.09912L36.4073 6.72412L38.506 11.7241L40.6048 12.5991L42.7035 14.4741L44.8023 24.9741L46.901 19.5991L48.9998 19.2241L51.0985 23.8491L53.1973 22.7241L55.296 22.3491L57.3947 21.5991L59.4935 21.8491L61.5922 21.3491L63.691 23.3491L65.7897 24.7241L67.8885 24.0991L69.9872 16.7241L72.086 15.5991L74.1847 18.4741L76.2835 13.2241L78.3822 11.9741L80.481 16.7241L82.5797 13.7241L84.6785 17.3491L86.7772 18.9741L88.876 15.9741L90.9747 25.4741L93.0735 24.7241L95.1722 37.2241L97.271 35.2241L99.3697 28.4741L99.7285 30.0991" stroke="#00A159" stroke-width="2" stroke-linecap="round" stroke-linejoin="round"/>
</g>
</g>
<defs>
<clipPath id="clip0_11_241">
<rect width="99" height="40" fill="white" transform="translate(0.728516 0.974121)"/>
</clipPath>
</defs>
</svg>
