<svg width="100" height="41" viewBox="0 0 100 41" fill="none" xmlns="http://www.w3.org/2000/svg">
<g clip-path="url(#clip0_11_321)">
<mask id="mask0_11_321" style="mask-type:luminance" maskUnits="userSpaceOnUse" x="0" y="0" width="100" height="41">
<path d="M99.7285 0.974121H0.728516V40.9741H99.7285V0.974121Z" fill="white"/>
</mask>
<g mask="url(#mask0_11_321)">
<path d="M0.728516 19.8992L2.82727 20.9242L4.92601 23.4492L7.02476 15.7492L9.12351 17.7742L11.2223 18.5242L13.321 20.5242L15.4198 16.2742L17.5185 16.9742L19.6173 12.0742L21.716 4.64922L23.8148 4.57422H25.9135L28.0123 10.0742H30.111L32.2098 12.1992H34.3085H36.4073L38.506 11.8992L40.6048 13.2242H42.7035L44.8023 16.4992L46.901 18.9992L48.9998 20.6742L51.0985 26.6992L53.1973 22.8242H55.296H57.3947L59.4935 24.5242H61.5922L63.691 26.3742L65.7897 27.1992L67.8885 25.4992L69.9872 24.7242L72.086 26.7492H74.1847L76.2835 29.0242H78.3822L80.481 29.0742H82.5797H84.6785L86.7772 30.1492L88.876 30.6492L90.9747 36.8992L93.0735 37.1242L95.1722 40.9742L97.271 37.1242L99.3697 35.7742H99.7285" stroke="#00A159" stroke-width="2" stroke-linecap="round" stroke-linejoin="round"/>
</g>
</g>
<defs>
<clipPath id="clip0_11_321">
<rect width="99" height="40" fill="white" transform="translate(0.728516 0.974121)"/>
</clipPath>
</defs>
</svg>
