<svg width="100" height="41" viewBox="0 0 100 41" fill="none" xmlns="http://www.w3.org/2000/svg">
<mask id="mask0_11_199" style="mask-type:luminance" maskUnits="userSpaceOnUse" x="0" y="0" width="100" height="41">
<path d="M99.7285 0.974121H0.728516V40.9741H99.7285V0.974121Z" fill="white"/>
</mask>
<g mask="url(#mask0_11_199)">
<path d="M0.728516 26.5741L2.82727 32.2241L4.92601 25.2241L7.02476 23.7741L9.12351 23.3741L11.2223 27.1241L13.321 25.5741L15.4198 21.3241L17.5185 20.1741L19.6173 14.2241L21.716 9.67407L23.8148 15.5741L25.9135 14.3741L28.0123 16.2241L30.111 17.6741L32.2098 16.9241L34.3085 12.0741L36.4073 13.1741L38.506 16.5741L40.6048 16.9741L42.7035 19.1241L44.8023 24.8241L46.901 24.6241L48.9998 22.9741L51.0985 27.5241L53.1973 24.6741L55.296 24.4241L57.3947 24.3241L59.4935 24.2741L61.5922 24.7241L63.691 26.4241H65.7897L67.8885 24.0241L69.9872 20.0241L72.086 17.5241L74.1847 17.4241L76.2835 13.1741L78.3822 15.0241L80.481 18.1741L82.5797 17.0241L84.6785 19.2241L86.7772 21.8741L88.876 18.5741L90.9747 22.8241L93.0735 23.3741L95.1722 34.9741L97.271 39.0241L99.3697 31.6741L99.7285 31.9241" stroke="#00A159" stroke-width="2" stroke-linecap="round" stroke-linejoin="round"/>
</g>
</svg>
