<svg xmlns:mydata="http://www.w3.org/2000/svg" mydata:contrastcolor="ffffff" mydata:template="Default" mydata:presentation="2.5" mydata:layouttype="undefined" mydata:specialfontid="undefined" mydata:id1="179" mydata:id2="233" mydata:companyname="revolutech" mydata:companytagline="" version="1.1" xmlns="http://www.w3.org/2000/svg" xmlns:xlink="http://www.w3.org/1999/xlink" viewBox="0 0 550 470"><g fill="#101820" fill-rule="none" stroke="none" stroke-width="1" stroke-linecap="butt" stroke-linejoin="miter" stroke-miterlimit="10" stroke-dasharray="" stroke-dashoffset="0" font-family="none" font-weight="none" font-size="none" text-anchor="none" style="mix-blend-mode: normal"><g data-paper-data="{&quot;isGlobalGroup&quot;:true,&quot;bounds&quot;:{&quot;x&quot;:83.39078124810604,&quot;y&quot;:115.00000000000003,&quot;width&quot;:383.218437503788,&quot;height&quot;:239.99999999999997}}"><g data-paper-data="{&quot;isPrimaryText&quot;:true}" fill-rule="nonzero"><path d="M83.39078,293.95712v60.26801h5.51022v-27.1206h8.00704c0.51658,0 0.94707,0 1.20536,-0.0861l12.31189,27.2067h6.199l-13.25896,-28.49816c5.9407,-2.49682 10.07337,-8.26533 10.07337,-15.1531c0,-4.47705 -1.72194,-8.60972 -4.64925,-11.62312c-2.9273,-3.0134 -6.97387,-4.90754 -11.45092,-4.99363zM88.901,299.46733h7.92094c3.0995,0 5.76851,1.29146 7.83484,3.27169c1.98023,2.06633 3.18559,4.73534 3.18559,7.83484c0,3.0134 -1.20536,5.76851 -3.18559,7.74874c-2.06633,2.06633 -4.73534,3.27169 -7.83484,3.27169h-7.92094z" data-paper-data="{&quot;glyphName&quot;:&quot;R&quot;,&quot;glyphIndex&quot;:0,&quot;firstGlyphOfWord&quot;:true,&quot;word&quot;:1}"></path><path d="M137.89028,293.52663c-4.56315,0 -8.69581,1.80804 -11.70921,4.82144c-3.0134,3.0134 -4.82144,7.14606 -4.82144,11.70921v28.32596c0,4.56315 1.80804,8.69581 4.82144,11.70921c3.0134,3.0134 7.14606,4.82144 11.70921,4.82144c4.56315,0 8.69581,-1.80804 11.70921,-4.82144c3.0134,-3.0134 4.82144,-7.14606 4.82144,-11.70921v-0.34439h-5.51022v0.34439c0,3.0134 -1.29146,5.76851 -3.27169,7.74874c-1.98023,2.06633 -4.73534,3.27169 -7.74874,3.27169c-3.0134,0 -5.76851,-1.20536 -7.74874,-3.27169c-2.06633,-1.98023 -3.27169,-4.73534 -3.27169,-7.74874v-16.96114h27.55109v-11.36482c0,-4.56315 -1.80804,-8.69581 -4.82144,-11.70921c-3.0134,-3.0134 -7.14606,-4.82144 -11.70921,-4.82144zM137.89028,299.12295c3.0134,0 5.76851,1.20536 7.74874,3.18559c1.98023,2.06633 3.27169,4.73534 3.27169,7.74874v5.85461h-22.04087v-5.85461c0,-3.0134 1.20536,-5.68241 3.27169,-7.74874c1.98023,-1.98023 4.73534,-3.18559 7.74874,-3.18559z" data-paper-data="{&quot;glyphName&quot;:&quot;E&quot;,&quot;glyphIndex&quot;:1,&quot;word&quot;:1}"></path><path d="M180.16398,354.22513l19.45796,-60.26801h-5.76851l-16.44456,50.88342l-16.35846,-50.88342h-5.76851l19.45796,60.26801z" data-paper-data="{&quot;glyphName&quot;:&quot;V&quot;,&quot;glyphIndex&quot;:2,&quot;word&quot;:1}"></path><path d="M220.45745,293.52663c-4.56315,0 -8.69581,1.80804 -11.70921,4.82144c-3.0134,3.0134 -4.82144,7.14606 -4.82144,11.70921v28.32596c0,4.56315 1.80804,8.69581 4.82144,11.70921c3.0134,3.0134 7.14606,4.82144 11.70921,4.82144c4.56315,0 8.69581,-1.80804 11.70921,-4.82144c3.0134,-3.0134 4.82144,-7.14606 4.82144,-11.70921v-28.32596c0,-4.56315 -1.80804,-8.69581 -4.82144,-11.70921c-3.0134,-3.0134 -7.14606,-4.82144 -11.70921,-4.82144zM220.45745,299.12295c3.0134,0 5.76851,1.20536 7.83484,3.18559c1.98023,2.06633 3.18559,4.73534 3.18559,7.74874v28.32596c0,3.0134 -1.20536,5.76851 -3.18559,7.74874c-2.06633,1.98023 -4.82144,3.18559 -7.83484,3.18559c-3.0134,0 -5.76851,-1.20536 -7.74874,-3.18559c-2.06633,-1.98023 -3.27169,-4.73534 -3.27169,-7.74874v-28.32596c0,-3.0134 1.20536,-5.68241 3.27169,-7.74874c1.98023,-1.98023 4.73534,-3.18559 7.74874,-3.18559z" data-paper-data="{&quot;glyphName&quot;:&quot;O&quot;,&quot;glyphIndex&quot;:3,&quot;word&quot;:1}"></path><path d="M248.09464,293.95712h-5.51022v44.51223c0,4.56315 1.80804,8.69581 4.82144,11.70921c3.0134,3.0134 7.14606,4.82144 11.70921,4.82144c4.56315,0 8.69581,-1.80804 11.70921,-4.82144c3.0134,-3.0134 4.82144,-7.14606 4.82144,-11.70921v-0.43049h-5.51022v0.43049c0,3.0134 -1.20536,5.76851 -3.18559,7.74874c-2.06633,1.98023 -4.82144,3.18559 -7.83484,3.18559c-3.0134,0 -5.76851,-1.20536 -7.74874,-3.18559c-2.06633,-1.98023 -3.27169,-4.73534 -3.27169,-7.74874z" data-paper-data="{&quot;glyphName&quot;:&quot;L&quot;,&quot;glyphIndex&quot;:4,&quot;word&quot;:1}"></path><path d="M314.30335,293.95712h-5.51022v44.42613c0,3.0134 -1.29146,5.76851 -3.27169,7.74874c-1.98023,2.06633 -4.73534,3.27169 -7.74874,3.27169c-3.0134,0 -5.76851,-1.20536 -7.74874,-3.27169c-2.06633,-1.98023 -3.27169,-4.73534 -3.27169,-7.74874v-44.42613h-5.51022v44.42613c0,4.56315 1.80804,8.69581 4.82144,11.70921c3.0134,3.0134 7.14606,4.82144 11.70921,4.82144c4.56315,0 8.69581,-1.80804 11.70921,-4.82144c3.0134,-3.0134 4.82144,-7.14606 4.82144,-11.70921z" data-paper-data="{&quot;glyphName&quot;:&quot;U&quot;,&quot;glyphIndex&quot;:5,&quot;word&quot;:1}"></path><path d="M352.35829,299.46733v-5.51022h-32.88911v5.51022h13.68945v54.75779h5.51022v-54.75779z" data-paper-data="{&quot;glyphName&quot;:&quot;T&quot;,&quot;glyphIndex&quot;:6,&quot;word&quot;:1}"></path><path d="M372.33283,293.52663c-4.56315,0 -8.69581,1.80804 -11.70921,4.82144c-3.0134,3.0134 -4.82144,7.14606 -4.82144,11.70921v28.32596c0,4.56315 1.80804,8.69581 4.82144,11.70921c3.0134,3.0134 7.14606,4.82144 11.70921,4.82144c4.56315,0 8.69581,-1.80804 11.70921,-4.82144c3.0134,-3.0134 4.82144,-7.14606 4.82144,-11.70921v-0.34439h-5.51022v0.34439c0,3.0134 -1.29146,5.76851 -3.27169,7.74874c-1.98023,2.06633 -4.73534,3.27169 -7.74874,3.27169c-3.0134,0 -5.76851,-1.20536 -7.74874,-3.27169c-2.06633,-1.98023 -3.27169,-4.73534 -3.27169,-7.74874v-16.96114h27.55109v-11.36482c0,-4.56315 -1.80804,-8.69581 -4.82144,-11.70921c-3.0134,-3.0134 -7.14606,-4.82144 -11.70921,-4.82144zM372.33283,299.12295c3.0134,0 5.76851,1.20536 7.74874,3.18559c1.98023,2.06633 3.27169,4.73534 3.27169,7.74874v5.85461h-22.04087v-5.85461c0,-3.0134 1.20536,-5.68241 3.27169,-7.74874c1.98023,-1.98023 4.73534,-3.18559 7.74874,-3.18559z" data-paper-data="{&quot;glyphName&quot;:&quot;E&quot;,&quot;glyphIndex&quot;:7,&quot;word&quot;:1}"></path><path d="M411.76533,293.61273c-4.56315,0 -8.9541,1.80804 -12.0536,4.82144c-3.18559,3.0134 -5.25193,7.14606 -5.25193,11.62312v28.15377c0,4.56315 2.06633,8.60972 5.25193,11.62312c3.0995,3.0134 7.49045,4.82144 12.0536,4.82144c4.47705,0 8.69581,-1.80804 11.62312,-4.82144c2.9273,-3.0134 4.73534,-7.05997 4.73534,-11.62312v-0.34439h-5.42412v0.34439c0,3.0134 -1.20536,5.76851 -3.18559,7.74874c-2.06633,1.98023 -4.73534,3.18559 -7.74874,3.18559c-3.0134,0 -5.76851,-1.20536 -7.74874,-3.18559c-1.98023,-1.98023 -3.27169,-4.73534 -3.27169,-7.74874v-28.15377c0,-3.0134 1.29146,-5.68241 3.27169,-7.74874c1.98023,-1.98023 4.73534,-3.18559 7.74874,-3.18559c3.0134,0 5.68241,1.20536 7.74874,3.18559c1.98023,2.06633 3.18559,4.73534 3.18559,7.74874v0.43049h5.42412v-0.43049c0,-4.47705 -1.80804,-8.60972 -4.73534,-11.62312c-2.9273,-3.0134 -7.14606,-4.82144 -11.62312,-4.82144z" data-paper-data="{&quot;glyphName&quot;:&quot;C&quot;,&quot;glyphIndex&quot;:8,&quot;word&quot;:1}"></path><path d="M466.60922,354.22513v-60.26801h-5.51022v27.3789h-21.86868v-27.3789h-5.51022v60.26801h5.51022v-27.3789h21.86868v27.3789z" data-paper-data="{&quot;glyphName&quot;:&quot;H&quot;,&quot;glyphIndex&quot;:9,&quot;lastGlyphOfWord&quot;:true,&quot;word&quot;:1}"></path></g><g data-paper-data="{&quot;isIcon&quot;:&quot;true&quot;,&quot;iconType&quot;:&quot;icon&quot;,&quot;rawIconId&quot;:&quot;746888&quot;,&quot;selectedEffects&quot;:{&quot;container&quot;:&quot;&quot;,&quot;transformation&quot;:&quot;&quot;,&quot;pattern&quot;:&quot;&quot;},&quot;isDetailed&quot;:false,&quot;fillRule&quot;:&quot;evenodd&quot;,&quot;bounds&quot;:{&quot;x&quot;:201.35299000137246,&quot;y&quot;:115.00000000000003,&quot;width&quot;:147.29401999725502,&quot;height&quot;:147.22228340785946},&quot;iconStyle&quot;:&quot;standalone&quot;,&quot;suitableAsStandaloneIcon&quot;:true}" fill-rule="evenodd"><path d="M346.70298,187.67597c0,14.40815 -4.23196,27.83942 -11.49381,39.14769c11.33443,16.06064 16.32759,29.12517 11.7469,33.70776c-4.58068,4.57878 -17.63517,-0.40849 -33.68784,-11.73478c-11.3282,7.2977 -24.79342,11.5534 -39.23916,11.5534c-40.07277,0 -72.6761,-32.60338 -72.6761,-72.67407c0,-40.0745 32.60333,-72.67596 72.6761,-72.67596c40.07242,0 72.6739,32.60146 72.6739,72.67596zM333.46695,229.41491c-3.80528,-5.95201 -9.14353,-12.98259 -15.63188,-20.52958c2.46184,-5.81862 4.87172,-14.5055 4.87172,-21.20936c0,-26.84262 -21.83716,-48.67978 -48.6777,-48.67978c-26.8428,0 -48.68013,21.83716 -48.68013,48.67978c0,26.84071 21.83733,48.67805 48.68013,48.67805c6.74353,0 13.17003,-1.37947 19.01464,-3.86921c-42.78753,-39.47458 -47.93245,-73.79628 -47.93245,-73.79628c0.01178,-0.11763 0.18329,-0.14743 0.27319,-0.22313c2.25241,9.54613 17.28246,29.87233 38.17082,50.76085c6.55799,6.55816 13.06055,12.53236 19.18996,17.723c7.29563,6.17341 14.06324,11.22858 19.7722,14.80069c8.31235,5.19879 14.38406,7.26583 16.56874,5.08116c2.26072,-2.25864 -0.0298,-8.67319 -5.61923,-17.4162z" data-paper-data="{&quot;isPathIcon&quot;:true}"></path></g></g></g></svg>